
<svg xmlns="http://www.w3.org/2000/svg" xmlns:xlink="http://www.w3.org/1999/xlink" width="1324" zoomAndPan="magnify" viewBox="0 0 993 796.499976" height="1062" preserveAspectRatio="xMidYMid meet" version="1.0"><defs><clipPath id="bcfe665ae8"><path d="M 196.648438 196.503906 L 796.273438 196.503906 L 796.273438 795.378906 L 196.648438 795.378906 Z M 196.648438 196.503906 " clip-rule="nonzero"/></clipPath><clipPath id="035f0287d2"><path d="M 0.3125 3 L 992.6875 3 L 992.6875 357 L 0.3125 357 Z M 0.3125 3 " clip-rule="nonzero"/></clipPath></defs><g clip-path="url(#bcfe665ae8)"><path fill="#c142bb" d="M 496.855469 495.941406 L 496.855469 701.761719 C 496.582031 701.761719 496.3125 701.773438 496.039062 701.773438 C 382.542969 701.773438 290.207031 609.4375 290.207031 495.941406 C 290.207031 382.445312 382.542969 290.109375 496.039062 290.109375 C 609.535156 290.109375 701.867188 382.445312 701.867188 495.941406 C 701.867188 532.816406 692.109375 567.453125 675.050781 597.414062 L 742.945312 665.3125 C 754.308594 648.785156 763.992188 631.140625 771.878906 612.492188 C 787.503906 575.550781 795.429688 536.339844 795.429688 495.941406 C 795.429688 455.542969 787.503906 416.332031 771.878906 379.390625 C 756.800781 343.734375 735.21875 311.722656 707.738281 284.242188 C 680.257812 256.757812 648.246094 235.179688 612.589844 220.101562 C 575.648438 204.472656 536.4375 196.550781 496.039062 196.550781 C 455.640625 196.550781 416.429688 204.472656 379.488281 220.101562 C 343.832031 235.179688 311.820312 256.757812 284.335938 284.242188 C 256.859375 311.722656 235.277344 343.734375 220.199219 379.390625 C 204.570312 416.332031 196.648438 455.542969 196.648438 495.941406 C 196.648438 536.339844 204.570312 575.550781 220.199219 612.492188 C 235.277344 648.148438 256.859375 680.160156 284.335938 707.640625 C 311.820312 735.125 343.832031 756.703125 379.488281 771.78125 C 416.429688 787.410156 455.640625 795.332031 496.039062 795.332031 C 528.449219 795.332031 560.09375 790.21875 590.417969 780.132812 L 590.417969 721.8125 L 663.933594 795.332031 L 796.246094 795.332031 L 496.855469 495.941406 " fill-opacity="1" fill-rule="nonzero"/></g><g clip-path="url(#035f0287d2)"><path fill="#c142bb" d="M 0.164062 315.425781 C 27.144531 357.136719 82.835938 369.070312 124.546875 342.089844 C 252.058594 259.59375 496.277344 101.605469 496.277344 101.605469 C 496.277344 101.605469 740.503906 259.59375 868.007812 342.089844 C 909.71875 369.070312 965.410156 357.136719 992.394531 315.425781 C 992.394531 315.417969 992.394531 315.417969 992.394531 315.417969 C 992.394531 315.417969 520.714844 10.265625 520.714844 10.265625 C 505.84375 0.648438 486.710938 0.648438 471.847656 10.265625 C 471.847656 10.265625 0.15625 315.417969 0.15625 315.417969 C 0.15625 315.417969 0.15625 315.417969 0.164062 315.425781 Z M 0.164062 315.425781 " fill-opacity="1" fill-rule="evenodd"/></g></svg>